<?xml version="1.0" encoding="UTF-8" standalone="no"?>
<!-- Created with Inkscape (http://www.inkscape.org/) -->

<svg
   width="32"
   height="32"
   viewBox="0 0 32 32"
   version="1.1"
   id="svg1"
   inkscape:version="1.4.3 (0d15f75042, 2025-12-25)"
   sodipodi:docname="icon.svg"
   inkscape:export-filename="logo.svg"
   inkscape:export-xdpi="3072"
   inkscape:export-ydpi="3072"
   xmlns:inkscape="http://www.inkscape.org/namespaces/inkscape"
   xmlns:sodipodi="http://sodipodi.sourceforge.net/DTD/sodipodi-0.dtd"
   xmlns="http://www.w3.org/2000/svg"
   xmlns:svg="http://www.w3.org/2000/svg">
  <sodipodi:namedview
     id="namedview1"
     pagecolor="#ffffff"
     bordercolor="#000000"
     borderopacity="0.25"
     inkscape:showpageshadow="2"
     inkscape:pageopacity="0.0"
     inkscape:pagecheckerboard="false"
     inkscape:deskcolor="#d1d1d1"
     inkscape:document-units="px"
     showguides="true"
     inkscape:zoom="15.979552"
     inkscape:cx="19.524953"
     inkscape:cy="16.802724"
     inkscape:window-width="1706"
     inkscape:window-height="905"
     inkscape:window-x="20"
     inkscape:window-y="20"
     inkscape:window-maximized="0"
     inkscape:current-layer="layer1" />
  <defs
     id="defs1" />
  <g
     inkscape:label="Layer 1"
     inkscape:groupmode="layer"
     id="layer1">
    <path
       d="M 20.408118,1.203125 H 11.443274 L 2.3495248,2.8203125 C 0.79664807,3.0964963 -0.23134653,4.568217 0.04483727,6.1210937 L 4.2303841,29.650391 c 0.2761838,1.552876 1.7479046,2.580871 3.3007816,2.304687 L 22.808509,29.238281 C 24.361385,28.962097 25.38938,27.490377 25.113196,25.9375 L 20.927649,2.4082031 C 20.847168,1.9556857 20.664161,1.5471926 20.408118,1.203125 Z"
       style="fill:#71717a;stroke-width:2.05786;fill-opacity:1"
       id="path3"
       inkscape:label="left card" />
    <path
       d="M 20.556641,1.203125 H 11.589844 C 11.334106,1.5470294 11.152687,1.9560268 11.072266,2.4082031 L 6.8867187,25.9375 c -0.2761837,1.552877 0.7518108,3.024597 2.3046876,3.300781 L 24.46875,31.955078 c 1.552877,0.276184 3.024597,-0.751811 3.300781,-2.304687 L 31.955078,6.1210937 C 32.231262,4.568217 31.203267,3.0964963 29.650391,2.8203125 Z"
       style="fill:#06b6d4;stroke-width:2.05786;fill-opacity:1"
       id="path2"
       inkscape:label="right card" />
    <rect
       style="fill:#18181b;stroke-width:2.05786;fill-opacity:1"
       id="rect1"
       width="21.210592"
       height="29.592194"
       x="5.3947039"
       y="1.2039032"
       rx="0"
       ry="2.8470137"
       inkscape:label="main card" />
    <text
       xml:space="preserve"
       style="font-weight:600;font-size:31.6742px;font-family:'Fraunces 72pt SuperSoft';-inkscape-font-specification:'Fraunces 72pt SuperSoft Semi-Bold';word-spacing:0px;writing-mode:lr-tb;direction:ltr;fill:#f5f5f4;stroke-width:1.89121;fill-opacity:1"
       x="6.7511392"
       y="27.584848"
       id="text1"
       inkscape:label="letter d"><tspan
         sodipodi:role="line"
         id="tspan1"
         x="6.7511392"
         y="27.584848"
         style="stroke-width:1.89121;fill:#f5f5f4;fill-opacity:1">d</tspan></text>
  </g>
</svg>
