<?xml version="1.0" encoding="UTF-8" standalone="no"?>
<!-- Created with Inkscape (http://www.inkscape.org/) -->

<svg
   width="32"
   height="32"
   viewBox="0 0 32 32"
   version="1.1"
   id="svg1"
   xmlns="http://www.w3.org/2000/svg"
   xmlns:svg="http://www.w3.org/2000/svg">
  <defs
     id="defs1" />
  <g
     id="layer1">
    <path
       d="M 20.408118,1.203125 H 11.443274 L 2.3495248,2.8203125 C 0.79664807,3.0964963 -0.23134653,4.568217 0.04483727,6.1210937 L 4.2303841,29.650391 c 0.2761838,1.552876 1.7479046,2.580871 3.3007816,2.304687 L 22.808509,29.238281 C 24.361385,28.962097 25.38938,27.490377 25.113196,25.9375 L 20.927649,2.4082031 C 20.847168,1.9556857 20.664161,1.5471926 20.408118,1.203125 Z"
       style="fill:#71717a;fill-opacity:1;stroke-width:2.05786"
       id="path3" />
    <path
       d="M 20.556641,1.203125 H 11.589844 C 11.334106,1.5470294 11.152687,1.9560268 11.072266,2.4082031 L 6.8867187,25.9375 c -0.2761837,1.552877 0.7518108,3.024597 2.3046876,3.300781 L 24.46875,31.955078 c 1.552877,0.276184 3.024597,-0.751811 3.300781,-2.304687 L 31.955078,6.1210937 C 32.231262,4.568217 31.203267,3.0964963 29.650391,2.8203125 Z"
       style="fill:#06b6d4;fill-opacity:1;stroke-width:2.05786"
       id="path2" />
    <rect
       style="fill:#18181b;fill-opacity:1;stroke-width:2.05786"
       id="rect1"
       width="21.210592"
       height="29.592194"
       x="5.3947039"
       y="1.2039032"
       rx="0"
       ry="2.8470137" />
    <text
       xml:space="preserve"
       style="font-weight:600;font-size:31.6742px;font-family:'Fraunces 72pt SuperSoft';-inkscape-font-specification:'Fraunces 72pt SuperSoft Semi-Bold';word-spacing:0px;writing-mode:lr-tb;direction:ltr;fill:#f5f5f4;fill-opacity:1;stroke-width:1.89121"
       x="6.7511392"
       y="27.584848"
       id="text1"><tspan
         id="tspan1"
         x="6.7511392"
         y="27.584848"
         style="fill:#f5f5f4;fill-opacity:1;stroke-width:1.89121">d</tspan></text>
  </g>
</svg>
